<mxfile host="app.diagrams.net" modified="2022-10-23T12:20:45.383Z" agent="5.0 (Windows NT 10.0; Win64; x64) AppleWebKit/537.36 (KHTML, like Gecko) Chrome/106.0.0.0 Safari/537.36" etag="5AyXdbwWJUQEKF-nfbQU" version="20.5.1" type="github">
  <diagram id="e-zPQzMBw3i7FA1pLN4_" name="第 1 页">
    <mxGraphModel dx="1692" dy="429" grid="1" gridSize="10" guides="1" tooltips="1" connect="1" arrows="1" fold="1" page="1" pageScale="1" pageWidth="827" pageHeight="1169" math="0" shadow="0">
      <root>
        <mxCell id="0" />
        <mxCell id="1" parent="0" />
        <mxCell id="n-UZRIZnCVYdmCaeWVoW-1" value="" style="rounded=0;whiteSpace=wrap;html=1;sketch=1;dashed=1;" vertex="1" parent="1">
          <mxGeometry x="130" y="120" width="540" height="330" as="geometry" />
        </mxCell>
        <mxCell id="n-UZRIZnCVYdmCaeWVoW-111" value="read" style="edgeStyle=none;rounded=0;sketch=1;hachureGap=4;jiggle=2;orthogonalLoop=1;jettySize=auto;html=1;exitX=0.25;exitY=1;exitDx=0;exitDy=0;entryX=0.114;entryY=-0.015;entryDx=0;entryDy=0;entryPerimeter=0;fontFamily=Architects Daughter;fontSource=https%3A%2F%2Ffonts.googleapis.com%2Fcss%3Ffamily%3DArchitects%2BDaughter;fontSize=20;" edge="1" parent="1" source="n-UZRIZnCVYdmCaeWVoW-2" target="n-UZRIZnCVYdmCaeWVoW-3">
          <mxGeometry relative="1" as="geometry" />
        </mxCell>
        <mxCell id="n-UZRIZnCVYdmCaeWVoW-115" value="write" style="edgeStyle=none;rounded=0;sketch=1;hachureGap=4;jiggle=2;orthogonalLoop=1;jettySize=auto;html=1;exitX=0.75;exitY=1;exitDx=0;exitDy=0;entryX=0.337;entryY=-0.007;entryDx=0;entryDy=0;entryPerimeter=0;fontFamily=Architects Daughter;fontSource=https%3A%2F%2Ffonts.googleapis.com%2Fcss%3Ffamily%3DArchitects%2BDaughter;fontSize=20;" edge="1" parent="1" source="n-UZRIZnCVYdmCaeWVoW-2" target="n-UZRIZnCVYdmCaeWVoW-3">
          <mxGeometry relative="1" as="geometry" />
        </mxCell>
        <mxCell id="n-UZRIZnCVYdmCaeWVoW-2" value="" style="rounded=1;whiteSpace=wrap;html=1;sketch=1;" vertex="1" parent="1">
          <mxGeometry x="170" y="80" width="460" height="100" as="geometry" />
        </mxCell>
        <mxCell id="n-UZRIZnCVYdmCaeWVoW-4" value="虚拟内存" style="text;html=1;strokeColor=none;fillColor=none;align=center;verticalAlign=middle;whiteSpace=wrap;rounded=0;sketch=1;" vertex="1" parent="1">
          <mxGeometry x="150" y="410" width="60" height="30" as="geometry" />
        </mxCell>
        <mxCell id="n-UZRIZnCVYdmCaeWVoW-5" value="&lt;span style=&quot;color: rgb(68, 68, 68); font-family: 微软雅黑; font-size: 13px; text-align: left; background-color: rgb(255, 255, 255);&quot;&gt;用户空间（User-space）&lt;/span&gt;" style="text;html=1;strokeColor=none;fillColor=none;align=center;verticalAlign=middle;whiteSpace=wrap;rounded=0;sketch=1;" vertex="1" parent="1">
          <mxGeometry x="-20" y="200" width="180" height="40" as="geometry" />
        </mxCell>
        <mxCell id="n-UZRIZnCVYdmCaeWVoW-7" value="" style="rounded=0;whiteSpace=wrap;html=1;sketch=1;" vertex="1" parent="1">
          <mxGeometry x="130" y="510" width="1100" height="60" as="geometry" />
        </mxCell>
        <mxCell id="n-UZRIZnCVYdmCaeWVoW-8" value="硬件" style="text;html=1;strokeColor=none;fillColor=none;align=center;verticalAlign=middle;whiteSpace=wrap;rounded=0;sketch=1;" vertex="1" parent="1">
          <mxGeometry x="150" y="535" width="60" height="30" as="geometry" />
        </mxCell>
        <mxCell id="n-UZRIZnCVYdmCaeWVoW-9" value="磁盘" style="rounded=1;whiteSpace=wrap;html=1;sketch=1;" vertex="1" parent="1">
          <mxGeometry x="260" y="520" width="100" height="40" as="geometry" />
        </mxCell>
        <mxCell id="n-UZRIZnCVYdmCaeWVoW-10" value="网卡" style="rounded=1;whiteSpace=wrap;html=1;sketch=1;" vertex="1" parent="1">
          <mxGeometry x="470" y="520" width="100" height="40" as="geometry" />
        </mxCell>
        <mxCell id="n-UZRIZnCVYdmCaeWVoW-43" style="edgeStyle=none;rounded=0;sketch=1;hachureGap=4;jiggle=2;orthogonalLoop=1;jettySize=auto;html=1;fontFamily=Architects Daughter;fontSource=https%3A%2F%2Ffonts.googleapis.com%2Fcss%3Ffamily%3DArchitects%2BDaughter;fontSize=16;" edge="1" parent="1" source="n-UZRIZnCVYdmCaeWVoW-11" target="n-UZRIZnCVYdmCaeWVoW-39">
          <mxGeometry relative="1" as="geometry" />
        </mxCell>
        <mxCell id="n-UZRIZnCVYdmCaeWVoW-11" value="VPFN3" style="rounded=0;whiteSpace=wrap;html=1;sketch=1;hachureGap=4;jiggle=2;fontFamily=Architects Daughter;fontSource=https%3A%2F%2Ffonts.googleapis.com%2Fcss%3Ffamily%3DArchitects%2BDaughter;fontSize=20;" vertex="1" parent="1">
          <mxGeometry x="160" y="1390" width="120" height="50" as="geometry" />
        </mxCell>
        <mxCell id="n-UZRIZnCVYdmCaeWVoW-44" style="edgeStyle=none;rounded=0;sketch=1;hachureGap=4;jiggle=2;orthogonalLoop=1;jettySize=auto;html=1;fontFamily=Architects Daughter;fontSource=https%3A%2F%2Ffonts.googleapis.com%2Fcss%3Ffamily%3DArchitects%2BDaughter;fontSize=16;" edge="1" parent="1" source="n-UZRIZnCVYdmCaeWVoW-12" target="n-UZRIZnCVYdmCaeWVoW-40">
          <mxGeometry relative="1" as="geometry" />
        </mxCell>
        <mxCell id="n-UZRIZnCVYdmCaeWVoW-12" value="VPFN2" style="rounded=0;whiteSpace=wrap;html=1;sketch=1;hachureGap=4;jiggle=2;fontFamily=Architects Daughter;fontSource=https%3A%2F%2Ffonts.googleapis.com%2Fcss%3Ffamily%3DArchitects%2BDaughter;fontSize=20;" vertex="1" parent="1">
          <mxGeometry x="160" y="1440" width="120" height="50" as="geometry" />
        </mxCell>
        <mxCell id="n-UZRIZnCVYdmCaeWVoW-45" style="edgeStyle=none;rounded=0;sketch=1;hachureGap=4;jiggle=2;orthogonalLoop=1;jettySize=auto;html=1;entryX=0;entryY=0.5;entryDx=0;entryDy=0;fontFamily=Architects Daughter;fontSource=https%3A%2F%2Ffonts.googleapis.com%2Fcss%3Ffamily%3DArchitects%2BDaughter;fontSize=16;" edge="1" parent="1" source="n-UZRIZnCVYdmCaeWVoW-13" target="n-UZRIZnCVYdmCaeWVoW-41">
          <mxGeometry relative="1" as="geometry" />
        </mxCell>
        <mxCell id="n-UZRIZnCVYdmCaeWVoW-13" value="VPFN1" style="rounded=0;whiteSpace=wrap;html=1;sketch=1;hachureGap=4;jiggle=2;fontFamily=Architects Daughter;fontSource=https%3A%2F%2Ffonts.googleapis.com%2Fcss%3Ffamily%3DArchitects%2BDaughter;fontSize=20;" vertex="1" parent="1">
          <mxGeometry x="160" y="1490" width="120" height="50" as="geometry" />
        </mxCell>
        <mxCell id="n-UZRIZnCVYdmCaeWVoW-47" style="edgeStyle=none;rounded=0;sketch=1;hachureGap=4;jiggle=2;orthogonalLoop=1;jettySize=auto;html=1;entryX=0;entryY=0.5;entryDx=0;entryDy=0;fontFamily=Architects Daughter;fontSource=https%3A%2F%2Ffonts.googleapis.com%2Fcss%3Ffamily%3DArchitects%2BDaughter;fontSize=16;" edge="1" parent="1" source="n-UZRIZnCVYdmCaeWVoW-14" target="n-UZRIZnCVYdmCaeWVoW-42">
          <mxGeometry relative="1" as="geometry" />
        </mxCell>
        <mxCell id="n-UZRIZnCVYdmCaeWVoW-14" value="VPFN0" style="rounded=0;whiteSpace=wrap;html=1;sketch=1;hachureGap=4;jiggle=2;fontFamily=Architects Daughter;fontSource=https%3A%2F%2Ffonts.googleapis.com%2Fcss%3Ffamily%3DArchitects%2BDaughter;fontSize=20;" vertex="1" parent="1">
          <mxGeometry x="160" y="1540" width="120" height="50" as="geometry" />
        </mxCell>
        <mxCell id="n-UZRIZnCVYdmCaeWVoW-27" style="rounded=0;sketch=1;hachureGap=4;jiggle=2;orthogonalLoop=1;jettySize=auto;html=1;exitX=1;exitY=0.5;exitDx=0;exitDy=0;entryX=0;entryY=0.5;entryDx=0;entryDy=0;fontFamily=Architects Daughter;fontSource=https%3A%2F%2Ffonts.googleapis.com%2Fcss%3Ffamily%3DArchitects%2BDaughter;fontSize=16;" edge="1" parent="1" source="n-UZRIZnCVYdmCaeWVoW-15" target="n-UZRIZnCVYdmCaeWVoW-19">
          <mxGeometry relative="1" as="geometry" />
        </mxCell>
        <mxCell id="n-UZRIZnCVYdmCaeWVoW-15" value="PTE0（ADDR3）" style="rounded=0;whiteSpace=wrap;html=1;sketch=1;hachureGap=4;jiggle=2;fontFamily=Architects Daughter;fontSource=https%3A%2F%2Ffonts.googleapis.com%2Fcss%3Ffamily%3DArchitects%2BDaughter;fontSize=20;" vertex="1" parent="1">
          <mxGeometry x="460" y="1390" width="170" height="50" as="geometry" />
        </mxCell>
        <mxCell id="n-UZRIZnCVYdmCaeWVoW-31" style="edgeStyle=none;rounded=0;sketch=1;hachureGap=4;jiggle=2;orthogonalLoop=1;jettySize=auto;html=1;fontFamily=Architects Daughter;fontSource=https%3A%2F%2Ffonts.googleapis.com%2Fcss%3Ffamily%3DArchitects%2BDaughter;fontSize=16;" edge="1" parent="1" source="n-UZRIZnCVYdmCaeWVoW-16" target="n-UZRIZnCVYdmCaeWVoW-21">
          <mxGeometry relative="1" as="geometry" />
        </mxCell>
        <mxCell id="n-UZRIZnCVYdmCaeWVoW-16" value="PTE0（ADDR1）" style="rounded=0;whiteSpace=wrap;html=1;sketch=1;hachureGap=4;jiggle=2;fontFamily=Architects Daughter;fontSource=https%3A%2F%2Ffonts.googleapis.com%2Fcss%3Ffamily%3DArchitects%2BDaughter;fontSize=20;" vertex="1" parent="1">
          <mxGeometry x="460" y="1440" width="170" height="50" as="geometry" />
        </mxCell>
        <mxCell id="n-UZRIZnCVYdmCaeWVoW-32" style="edgeStyle=none;rounded=0;sketch=1;hachureGap=4;jiggle=2;orthogonalLoop=1;jettySize=auto;html=1;entryX=0;entryY=0.5;entryDx=0;entryDy=0;fontFamily=Architects Daughter;fontSource=https%3A%2F%2Ffonts.googleapis.com%2Fcss%3Ffamily%3DArchitects%2BDaughter;fontSize=16;exitX=1;exitY=0.5;exitDx=0;exitDy=0;" edge="1" parent="1" source="n-UZRIZnCVYdmCaeWVoW-17" target="n-UZRIZnCVYdmCaeWVoW-23">
          <mxGeometry relative="1" as="geometry" />
        </mxCell>
        <mxCell id="n-UZRIZnCVYdmCaeWVoW-17" value="PTE1（NULL）" style="rounded=0;whiteSpace=wrap;html=1;sketch=1;hachureGap=4;jiggle=2;fontFamily=Architects Daughter;fontSource=https%3A%2F%2Ffonts.googleapis.com%2Fcss%3Ffamily%3DArchitects%2BDaughter;fontSize=20;" vertex="1" parent="1">
          <mxGeometry x="460" y="1490" width="170" height="50" as="geometry" />
        </mxCell>
        <mxCell id="n-UZRIZnCVYdmCaeWVoW-33" style="edgeStyle=none;rounded=0;sketch=1;hachureGap=4;jiggle=2;orthogonalLoop=1;jettySize=auto;html=1;entryX=0;entryY=0.5;entryDx=0;entryDy=0;fontFamily=Architects Daughter;fontSource=https%3A%2F%2Ffonts.googleapis.com%2Fcss%3Ffamily%3DArchitects%2BDaughter;fontSize=16;" edge="1" parent="1" source="n-UZRIZnCVYdmCaeWVoW-18" target="n-UZRIZnCVYdmCaeWVoW-25">
          <mxGeometry relative="1" as="geometry" />
        </mxCell>
        <mxCell id="n-UZRIZnCVYdmCaeWVoW-18" value="PTE0（NULL）" style="rounded=0;whiteSpace=wrap;html=1;sketch=1;hachureGap=4;jiggle=2;fontFamily=Architects Daughter;fontSource=https%3A%2F%2Ffonts.googleapis.com%2Fcss%3Ffamily%3DArchitects%2BDaughter;fontSize=20;" vertex="1" parent="1">
          <mxGeometry x="460" y="1540" width="170" height="50" as="geometry" />
        </mxCell>
        <mxCell id="n-UZRIZnCVYdmCaeWVoW-19" value="ADDR3" style="rounded=0;whiteSpace=wrap;html=1;sketch=1;hachureGap=4;jiggle=2;fontFamily=Architects Daughter;fontSource=https%3A%2F%2Ffonts.googleapis.com%2Fcss%3Ffamily%3DArchitects%2BDaughter;fontSize=20;" vertex="1" parent="1">
          <mxGeometry x="800" y="1310" width="120" height="50" as="geometry" />
        </mxCell>
        <mxCell id="n-UZRIZnCVYdmCaeWVoW-20" value="ADDR2" style="rounded=0;whiteSpace=wrap;html=1;sketch=1;hachureGap=4;jiggle=2;fontFamily=Architects Daughter;fontSource=https%3A%2F%2Ffonts.googleapis.com%2Fcss%3Ffamily%3DArchitects%2BDaughter;fontSize=20;" vertex="1" parent="1">
          <mxGeometry x="800" y="1360" width="120" height="50" as="geometry" />
        </mxCell>
        <mxCell id="n-UZRIZnCVYdmCaeWVoW-21" value="ADDR1" style="rounded=0;whiteSpace=wrap;html=1;sketch=1;hachureGap=4;jiggle=2;fontFamily=Architects Daughter;fontSource=https%3A%2F%2Ffonts.googleapis.com%2Fcss%3Ffamily%3DArchitects%2BDaughter;fontSize=20;" vertex="1" parent="1">
          <mxGeometry x="800" y="1410" width="120" height="50" as="geometry" />
        </mxCell>
        <mxCell id="n-UZRIZnCVYdmCaeWVoW-22" value="ADDR0" style="rounded=0;whiteSpace=wrap;html=1;sketch=1;hachureGap=4;jiggle=2;fontFamily=Architects Daughter;fontSource=https%3A%2F%2Ffonts.googleapis.com%2Fcss%3Ffamily%3DArchitects%2BDaughter;fontSize=20;" vertex="1" parent="1">
          <mxGeometry x="800" y="1460" width="120" height="50" as="geometry" />
        </mxCell>
        <mxCell id="n-UZRIZnCVYdmCaeWVoW-23" value="record" style="rounded=0;whiteSpace=wrap;html=1;sketch=1;hachureGap=4;jiggle=2;fontFamily=Architects Daughter;fontSource=https%3A%2F%2Ffonts.googleapis.com%2Fcss%3Ffamily%3DArchitects%2BDaughter;fontSize=20;" vertex="1" parent="1">
          <mxGeometry x="800" y="1890" width="120" height="50" as="geometry" />
        </mxCell>
        <mxCell id="n-UZRIZnCVYdmCaeWVoW-24" value="record" style="rounded=0;whiteSpace=wrap;html=1;sketch=1;hachureGap=4;jiggle=2;fontFamily=Architects Daughter;fontSource=https%3A%2F%2Ffonts.googleapis.com%2Fcss%3Ffamily%3DArchitects%2BDaughter;fontSize=20;" vertex="1" parent="1">
          <mxGeometry x="800" y="1940" width="120" height="50" as="geometry" />
        </mxCell>
        <mxCell id="n-UZRIZnCVYdmCaeWVoW-25" value="record" style="rounded=0;whiteSpace=wrap;html=1;sketch=1;hachureGap=4;jiggle=2;fontFamily=Architects Daughter;fontSource=https%3A%2F%2Ffonts.googleapis.com%2Fcss%3Ffamily%3DArchitects%2BDaughter;fontSize=20;" vertex="1" parent="1">
          <mxGeometry x="800" y="1990" width="120" height="50" as="geometry" />
        </mxCell>
        <mxCell id="n-UZRIZnCVYdmCaeWVoW-26" value="record" style="rounded=0;whiteSpace=wrap;html=1;sketch=1;hachureGap=4;jiggle=2;fontFamily=Architects Daughter;fontSource=https%3A%2F%2Ffonts.googleapis.com%2Fcss%3Ffamily%3DArchitects%2BDaughter;fontSize=20;" vertex="1" parent="1">
          <mxGeometry x="800" y="2040" width="120" height="50" as="geometry" />
        </mxCell>
        <mxCell id="n-UZRIZnCVYdmCaeWVoW-35" value="PageTable" style="text;html=1;strokeColor=none;fillColor=none;align=center;verticalAlign=middle;whiteSpace=wrap;rounded=0;sketch=1;hachureGap=4;jiggle=2;fontFamily=Architects Daughter;fontSource=https%3A%2F%2Ffonts.googleapis.com%2Fcss%3Ffamily%3DArchitects%2BDaughter;fontSize=20;" vertex="1" parent="1">
          <mxGeometry x="460" y="1110" width="110" height="40" as="geometry" />
        </mxCell>
        <mxCell id="n-UZRIZnCVYdmCaeWVoW-36" value="&lt;span style=&quot;color: rgb(18, 18, 18); text-align: start;&quot;&gt;&lt;font style=&quot;font-size: 20px;&quot;&gt;Physical memory&lt;/font&gt;&lt;/span&gt;" style="text;html=1;strokeColor=none;fillColor=none;align=center;verticalAlign=middle;whiteSpace=wrap;rounded=0;sketch=1;hachureGap=4;jiggle=2;fontFamily=Architects Daughter;fontSource=https%3A%2F%2Ffonts.googleapis.com%2Fcss%3Ffamily%3DArchitects%2BDaughter;fontSize=20;labelBackgroundColor=none;" vertex="1" parent="1">
          <mxGeometry x="775" y="910" width="160" height="50" as="geometry" />
        </mxCell>
        <mxCell id="n-UZRIZnCVYdmCaeWVoW-37" value="磁盘" style="text;html=1;strokeColor=none;fillColor=none;align=center;verticalAlign=middle;whiteSpace=wrap;rounded=0;sketch=1;hachureGap=4;jiggle=2;fontFamily=Architects Daughter;fontSource=https%3A%2F%2Ffonts.googleapis.com%2Fcss%3Ffamily%3DArchitects%2BDaughter;fontSize=20;" vertex="1" parent="1">
          <mxGeometry x="800" y="1840" width="110" height="40" as="geometry" />
        </mxCell>
        <mxCell id="n-UZRIZnCVYdmCaeWVoW-39" value="1" style="rounded=0;whiteSpace=wrap;html=1;sketch=1;hachureGap=4;jiggle=2;fontFamily=Architects Daughter;fontSource=https%3A%2F%2Ffonts.googleapis.com%2Fcss%3Ffamily%3DArchitects%2BDaughter;fontSize=20;" vertex="1" parent="1">
          <mxGeometry x="400" y="1390" width="60" height="50" as="geometry" />
        </mxCell>
        <mxCell id="n-UZRIZnCVYdmCaeWVoW-40" value="1" style="rounded=0;whiteSpace=wrap;html=1;sketch=1;hachureGap=4;jiggle=2;fontFamily=Architects Daughter;fontSource=https%3A%2F%2Ffonts.googleapis.com%2Fcss%3Ffamily%3DArchitects%2BDaughter;fontSize=20;" vertex="1" parent="1">
          <mxGeometry x="400" y="1440" width="60" height="50" as="geometry" />
        </mxCell>
        <mxCell id="n-UZRIZnCVYdmCaeWVoW-41" value="0" style="rounded=0;whiteSpace=wrap;html=1;sketch=1;hachureGap=4;jiggle=2;fontFamily=Architects Daughter;fontSource=https%3A%2F%2Ffonts.googleapis.com%2Fcss%3Ffamily%3DArchitects%2BDaughter;fontSize=20;" vertex="1" parent="1">
          <mxGeometry x="400" y="1490" width="60" height="50" as="geometry" />
        </mxCell>
        <mxCell id="n-UZRIZnCVYdmCaeWVoW-42" value="0" style="rounded=0;whiteSpace=wrap;html=1;sketch=1;hachureGap=4;jiggle=2;fontFamily=Architects Daughter;fontSource=https%3A%2F%2Ffonts.googleapis.com%2Fcss%3Ffamily%3DArchitects%2BDaughter;fontSize=20;" vertex="1" parent="1">
          <mxGeometry x="400" y="1540" width="60" height="50" as="geometry" />
        </mxCell>
        <mxCell id="n-UZRIZnCVYdmCaeWVoW-48" style="edgeStyle=none;rounded=0;sketch=1;hachureGap=4;jiggle=2;orthogonalLoop=1;jettySize=auto;html=1;fontFamily=Architects Daughter;fontSource=https%3A%2F%2Ffonts.googleapis.com%2Fcss%3Ffamily%3DArchitects%2BDaughter;fontSize=16;entryX=1;entryY=0.5;entryDx=0;entryDy=0;" edge="1" parent="1" source="n-UZRIZnCVYdmCaeWVoW-49" target="n-UZRIZnCVYdmCaeWVoW-56">
          <mxGeometry relative="1" as="geometry" />
        </mxCell>
        <mxCell id="n-UZRIZnCVYdmCaeWVoW-49" value="VPFN3" style="rounded=0;whiteSpace=wrap;html=1;sketch=1;hachureGap=4;jiggle=2;fontFamily=Architects Daughter;fontSource=https%3A%2F%2Ffonts.googleapis.com%2Fcss%3Ffamily%3DArchitects%2BDaughter;fontSize=20;" vertex="1" parent="1">
          <mxGeometry x="1410" y="1450" width="120" height="50" as="geometry" />
        </mxCell>
        <mxCell id="n-UZRIZnCVYdmCaeWVoW-50" style="edgeStyle=none;rounded=0;sketch=1;hachureGap=4;jiggle=2;orthogonalLoop=1;jettySize=auto;html=1;fontFamily=Architects Daughter;fontSource=https%3A%2F%2Ffonts.googleapis.com%2Fcss%3Ffamily%3DArchitects%2BDaughter;fontSize=16;entryX=1;entryY=0.5;entryDx=0;entryDy=0;" edge="1" parent="1" source="n-UZRIZnCVYdmCaeWVoW-51" target="n-UZRIZnCVYdmCaeWVoW-57">
          <mxGeometry relative="1" as="geometry" />
        </mxCell>
        <mxCell id="n-UZRIZnCVYdmCaeWVoW-51" value="VPFN2" style="rounded=0;whiteSpace=wrap;html=1;sketch=1;hachureGap=4;jiggle=2;fontFamily=Architects Daughter;fontSource=https%3A%2F%2Ffonts.googleapis.com%2Fcss%3Ffamily%3DArchitects%2BDaughter;fontSize=20;" vertex="1" parent="1">
          <mxGeometry x="1410" y="1500" width="120" height="50" as="geometry" />
        </mxCell>
        <mxCell id="n-UZRIZnCVYdmCaeWVoW-52" style="edgeStyle=none;rounded=0;sketch=1;hachureGap=4;jiggle=2;orthogonalLoop=1;jettySize=auto;html=1;entryX=1;entryY=0.5;entryDx=0;entryDy=0;fontFamily=Architects Daughter;fontSource=https%3A%2F%2Ffonts.googleapis.com%2Fcss%3Ffamily%3DArchitects%2BDaughter;fontSize=16;" edge="1" parent="1" source="n-UZRIZnCVYdmCaeWVoW-53" target="n-UZRIZnCVYdmCaeWVoW-58">
          <mxGeometry relative="1" as="geometry" />
        </mxCell>
        <mxCell id="n-UZRIZnCVYdmCaeWVoW-53" value="VPFN1" style="rounded=0;whiteSpace=wrap;html=1;sketch=1;hachureGap=4;jiggle=2;fontFamily=Architects Daughter;fontSource=https%3A%2F%2Ffonts.googleapis.com%2Fcss%3Ffamily%3DArchitects%2BDaughter;fontSize=20;" vertex="1" parent="1">
          <mxGeometry x="1410" y="1550" width="120" height="50" as="geometry" />
        </mxCell>
        <mxCell id="n-UZRIZnCVYdmCaeWVoW-54" style="edgeStyle=none;rounded=0;sketch=1;hachureGap=4;jiggle=2;orthogonalLoop=1;jettySize=auto;html=1;entryX=1;entryY=0.5;entryDx=0;entryDy=0;fontFamily=Architects Daughter;fontSource=https%3A%2F%2Ffonts.googleapis.com%2Fcss%3Ffamily%3DArchitects%2BDaughter;fontSize=16;" edge="1" parent="1" source="n-UZRIZnCVYdmCaeWVoW-55" target="n-UZRIZnCVYdmCaeWVoW-59">
          <mxGeometry relative="1" as="geometry" />
        </mxCell>
        <mxCell id="n-UZRIZnCVYdmCaeWVoW-55" value="VPFN0" style="rounded=0;whiteSpace=wrap;html=1;sketch=1;hachureGap=4;jiggle=2;fontFamily=Architects Daughter;fontSource=https%3A%2F%2Ffonts.googleapis.com%2Fcss%3Ffamily%3DArchitects%2BDaughter;fontSize=20;" vertex="1" parent="1">
          <mxGeometry x="1410" y="1600" width="120" height="50" as="geometry" />
        </mxCell>
        <mxCell id="n-UZRIZnCVYdmCaeWVoW-56" value="PTE3（ADDR2）" style="rounded=0;whiteSpace=wrap;html=1;sketch=1;hachureGap=4;jiggle=2;fontFamily=Architects Daughter;fontSource=https%3A%2F%2Ffonts.googleapis.com%2Fcss%3Ffamily%3DArchitects%2BDaughter;fontSize=20;" vertex="1" parent="1">
          <mxGeometry x="1140" y="1440" width="160" height="50" as="geometry" />
        </mxCell>
        <mxCell id="n-UZRIZnCVYdmCaeWVoW-57" value="PTE2（ADDR0）" style="rounded=0;whiteSpace=wrap;html=1;sketch=1;hachureGap=4;jiggle=2;fontFamily=Architects Daughter;fontSource=https%3A%2F%2Ffonts.googleapis.com%2Fcss%3Ffamily%3DArchitects%2BDaughter;fontSize=20;" vertex="1" parent="1">
          <mxGeometry x="1140" y="1490" width="160" height="50" as="geometry" />
        </mxCell>
        <mxCell id="n-UZRIZnCVYdmCaeWVoW-58" value="PTE1（NULL）" style="rounded=0;whiteSpace=wrap;html=1;sketch=1;hachureGap=4;jiggle=2;fontFamily=Architects Daughter;fontSource=https%3A%2F%2Ffonts.googleapis.com%2Fcss%3Ffamily%3DArchitects%2BDaughter;fontSize=20;" vertex="1" parent="1">
          <mxGeometry x="1140" y="1540" width="160" height="50" as="geometry" />
        </mxCell>
        <mxCell id="n-UZRIZnCVYdmCaeWVoW-59" value="PTE0（NULL）" style="rounded=0;whiteSpace=wrap;html=1;sketch=1;hachureGap=4;jiggle=2;fontFamily=Architects Daughter;fontSource=https%3A%2F%2Ffonts.googleapis.com%2Fcss%3Ffamily%3DArchitects%2BDaughter;fontSize=20;" vertex="1" parent="1">
          <mxGeometry x="1140" y="1590" width="160" height="50" as="geometry" />
        </mxCell>
        <mxCell id="n-UZRIZnCVYdmCaeWVoW-60" value="&lt;span style=&quot;color: rgb(18, 18, 18); text-align: start;&quot;&gt;&lt;font style=&quot;font-size: 20px;&quot;&gt;Virtual Memory&lt;/font&gt;&lt;/span&gt;" style="text;html=1;strokeColor=none;fillColor=none;align=center;verticalAlign=middle;whiteSpace=wrap;rounded=0;sketch=1;hachureGap=4;jiggle=2;fontFamily=Architects Daughter;fontSource=https%3A%2F%2Ffonts.googleapis.com%2Fcss%3Ffamily%3DArchitects%2BDaughter;fontSize=20;labelBackgroundColor=none;" vertex="1" parent="1">
          <mxGeometry x="1382.5" y="1390" width="175" height="35" as="geometry" />
        </mxCell>
        <mxCell id="n-UZRIZnCVYdmCaeWVoW-61" value="PageTable" style="text;html=1;strokeColor=none;fillColor=none;align=center;verticalAlign=middle;whiteSpace=wrap;rounded=0;sketch=1;hachureGap=4;jiggle=2;fontFamily=Architects Daughter;fontSource=https%3A%2F%2Ffonts.googleapis.com%2Fcss%3Ffamily%3DArchitects%2BDaughter;fontSize=20;" vertex="1" parent="1">
          <mxGeometry x="1140" y="1360" width="110" height="40" as="geometry" />
        </mxCell>
        <mxCell id="n-UZRIZnCVYdmCaeWVoW-66" style="edgeStyle=none;rounded=0;sketch=1;hachureGap=4;jiggle=2;orthogonalLoop=1;jettySize=auto;html=1;entryX=1;entryY=0.5;entryDx=0;entryDy=0;fontFamily=Architects Daughter;fontSource=https%3A%2F%2Ffonts.googleapis.com%2Fcss%3Ffamily%3DArchitects%2BDaughter;fontSize=16;" edge="1" parent="1" source="n-UZRIZnCVYdmCaeWVoW-62" target="n-UZRIZnCVYdmCaeWVoW-20">
          <mxGeometry relative="1" as="geometry" />
        </mxCell>
        <mxCell id="n-UZRIZnCVYdmCaeWVoW-62" value="1" style="rounded=0;whiteSpace=wrap;html=1;sketch=1;hachureGap=4;jiggle=2;fontFamily=Architects Daughter;fontSource=https%3A%2F%2Ffonts.googleapis.com%2Fcss%3Ffamily%3DArchitects%2BDaughter;fontSize=20;" vertex="1" parent="1">
          <mxGeometry x="1080" y="1440" width="60" height="50" as="geometry" />
        </mxCell>
        <mxCell id="n-UZRIZnCVYdmCaeWVoW-67" style="edgeStyle=none;rounded=0;sketch=1;hachureGap=4;jiggle=2;orthogonalLoop=1;jettySize=auto;html=1;entryX=1;entryY=0.5;entryDx=0;entryDy=0;fontFamily=Architects Daughter;fontSource=https%3A%2F%2Ffonts.googleapis.com%2Fcss%3Ffamily%3DArchitects%2BDaughter;fontSize=16;" edge="1" parent="1" source="n-UZRIZnCVYdmCaeWVoW-63" target="n-UZRIZnCVYdmCaeWVoW-22">
          <mxGeometry relative="1" as="geometry" />
        </mxCell>
        <mxCell id="n-UZRIZnCVYdmCaeWVoW-63" value="1" style="rounded=0;whiteSpace=wrap;html=1;sketch=1;hachureGap=4;jiggle=2;fontFamily=Architects Daughter;fontSource=https%3A%2F%2Ffonts.googleapis.com%2Fcss%3Ffamily%3DArchitects%2BDaughter;fontSize=20;" vertex="1" parent="1">
          <mxGeometry x="1080" y="1490" width="60" height="50" as="geometry" />
        </mxCell>
        <mxCell id="n-UZRIZnCVYdmCaeWVoW-68" style="edgeStyle=none;rounded=0;sketch=1;hachureGap=4;jiggle=2;orthogonalLoop=1;jettySize=auto;html=1;entryX=1;entryY=0.5;entryDx=0;entryDy=0;fontFamily=Architects Daughter;fontSource=https%3A%2F%2Ffonts.googleapis.com%2Fcss%3Ffamily%3DArchitects%2BDaughter;fontSize=16;exitX=0;exitY=0.5;exitDx=0;exitDy=0;" edge="1" parent="1" source="n-UZRIZnCVYdmCaeWVoW-64" target="n-UZRIZnCVYdmCaeWVoW-24">
          <mxGeometry relative="1" as="geometry" />
        </mxCell>
        <mxCell id="n-UZRIZnCVYdmCaeWVoW-64" value="0" style="rounded=0;whiteSpace=wrap;html=1;sketch=1;hachureGap=4;jiggle=2;fontFamily=Architects Daughter;fontSource=https%3A%2F%2Ffonts.googleapis.com%2Fcss%3Ffamily%3DArchitects%2BDaughter;fontSize=20;" vertex="1" parent="1">
          <mxGeometry x="1080" y="1540" width="60" height="50" as="geometry" />
        </mxCell>
        <mxCell id="n-UZRIZnCVYdmCaeWVoW-69" style="edgeStyle=none;rounded=0;sketch=1;hachureGap=4;jiggle=2;orthogonalLoop=1;jettySize=auto;html=1;exitX=0;exitY=0.5;exitDx=0;exitDy=0;entryX=1;entryY=0.5;entryDx=0;entryDy=0;fontFamily=Architects Daughter;fontSource=https%3A%2F%2Ffonts.googleapis.com%2Fcss%3Ffamily%3DArchitects%2BDaughter;fontSize=16;" edge="1" parent="1" source="n-UZRIZnCVYdmCaeWVoW-65" target="n-UZRIZnCVYdmCaeWVoW-26">
          <mxGeometry relative="1" as="geometry" />
        </mxCell>
        <mxCell id="n-UZRIZnCVYdmCaeWVoW-65" value="0" style="rounded=0;whiteSpace=wrap;html=1;sketch=1;hachureGap=4;jiggle=2;fontFamily=Architects Daughter;fontSource=https%3A%2F%2Ffonts.googleapis.com%2Fcss%3Ffamily%3DArchitects%2BDaughter;fontSize=20;" vertex="1" parent="1">
          <mxGeometry x="1080" y="1590" width="60" height="50" as="geometry" />
        </mxCell>
        <mxCell id="n-UZRIZnCVYdmCaeWVoW-73" value="&lt;span style=&quot;color: rgb(18, 18, 18); text-align: start;&quot;&gt;&lt;font style=&quot;font-size: 20px;&quot;&gt;Virtual Memory&lt;/font&gt;&lt;/span&gt;" style="text;html=1;strokeColor=none;fillColor=none;align=center;verticalAlign=middle;whiteSpace=wrap;rounded=0;sketch=1;hachureGap=4;jiggle=2;fontFamily=Architects Daughter;fontSource=https%3A%2F%2Ffonts.googleapis.com%2Fcss%3Ffamily%3DArchitects%2BDaughter;fontSize=20;labelBackgroundColor=none;" vertex="1" parent="1">
          <mxGeometry x="140" y="830" width="175" height="35" as="geometry" />
        </mxCell>
        <mxCell id="n-UZRIZnCVYdmCaeWVoW-74" value="VPFN3" style="rounded=0;whiteSpace=wrap;html=1;sketch=1;hachureGap=4;jiggle=2;fontFamily=Architects Daughter;fontSource=https%3A%2F%2Ffonts.googleapis.com%2Fcss%3Ffamily%3DArchitects%2BDaughter;fontSize=20;" vertex="1" parent="1">
          <mxGeometry x="160" y="1185" width="120" height="50" as="geometry" />
        </mxCell>
        <mxCell id="n-UZRIZnCVYdmCaeWVoW-75" value="VPFN2" style="rounded=0;whiteSpace=wrap;html=1;sketch=1;hachureGap=4;jiggle=2;fontFamily=Architects Daughter;fontSource=https%3A%2F%2Ffonts.googleapis.com%2Fcss%3Ffamily%3DArchitects%2BDaughter;fontSize=20;" vertex="1" parent="1">
          <mxGeometry x="160" y="1235" width="120" height="50" as="geometry" />
        </mxCell>
        <mxCell id="n-UZRIZnCVYdmCaeWVoW-76" value="VPFN1" style="rounded=0;whiteSpace=wrap;html=1;sketch=1;hachureGap=4;jiggle=2;fontFamily=Architects Daughter;fontSource=https%3A%2F%2Ffonts.googleapis.com%2Fcss%3Ffamily%3DArchitects%2BDaughter;fontSize=20;" vertex="1" parent="1">
          <mxGeometry x="160" y="1285" width="120" height="50" as="geometry" />
        </mxCell>
        <mxCell id="n-UZRIZnCVYdmCaeWVoW-77" value="VPFN0" style="rounded=0;whiteSpace=wrap;html=1;sketch=1;hachureGap=4;jiggle=2;fontFamily=Architects Daughter;fontSource=https%3A%2F%2Ffonts.googleapis.com%2Fcss%3Ffamily%3DArchitects%2BDaughter;fontSize=20;" vertex="1" parent="1">
          <mxGeometry x="160" y="1335" width="120" height="50" as="geometry" />
        </mxCell>
        <mxCell id="n-UZRIZnCVYdmCaeWVoW-78" value="内核地址空间" style="text;html=1;strokeColor=none;fillColor=none;align=center;verticalAlign=middle;whiteSpace=wrap;rounded=0;labelBackgroundColor=none;sketch=1;hachureGap=4;jiggle=2;fontFamily=Architects Daughter;fontSource=https%3A%2F%2Ffonts.googleapis.com%2Fcss%3Ffamily%3DArchitects%2BDaughter;fontSize=20;" vertex="1" parent="1">
          <mxGeometry x="-110" y="1185" width="160" height="30" as="geometry" />
        </mxCell>
        <mxCell id="n-UZRIZnCVYdmCaeWVoW-79" value="用户地址空间" style="text;html=1;strokeColor=none;fillColor=none;align=center;verticalAlign=middle;whiteSpace=wrap;rounded=0;labelBackgroundColor=none;sketch=1;hachureGap=4;jiggle=2;fontFamily=Architects Daughter;fontSource=https%3A%2F%2Ffonts.googleapis.com%2Fcss%3Ffamily%3DArchitects%2BDaughter;fontSize=20;" vertex="1" parent="1">
          <mxGeometry x="-30" y="1485" width="150" height="40" as="geometry" />
        </mxCell>
        <mxCell id="n-UZRIZnCVYdmCaeWVoW-80" value="PTE0（ADDR3）" style="rounded=0;whiteSpace=wrap;html=1;sketch=1;hachureGap=4;jiggle=2;fontFamily=Architects Daughter;fontSource=https%3A%2F%2Ffonts.googleapis.com%2Fcss%3Ffamily%3DArchitects%2BDaughter;fontSize=20;" vertex="1" parent="1">
          <mxGeometry x="460" y="1180" width="170" height="50" as="geometry" />
        </mxCell>
        <mxCell id="n-UZRIZnCVYdmCaeWVoW-81" value="PTE0（ADDR1）" style="rounded=0;whiteSpace=wrap;html=1;sketch=1;hachureGap=4;jiggle=2;fontFamily=Architects Daughter;fontSource=https%3A%2F%2Ffonts.googleapis.com%2Fcss%3Ffamily%3DArchitects%2BDaughter;fontSize=20;" vertex="1" parent="1">
          <mxGeometry x="460" y="1230" width="170" height="50" as="geometry" />
        </mxCell>
        <mxCell id="n-UZRIZnCVYdmCaeWVoW-82" value="PTE1（NULL）" style="rounded=0;whiteSpace=wrap;html=1;sketch=1;hachureGap=4;jiggle=2;fontFamily=Architects Daughter;fontSource=https%3A%2F%2Ffonts.googleapis.com%2Fcss%3Ffamily%3DArchitects%2BDaughter;fontSize=20;" vertex="1" parent="1">
          <mxGeometry x="460" y="1280" width="170" height="50" as="geometry" />
        </mxCell>
        <mxCell id="n-UZRIZnCVYdmCaeWVoW-83" value="PTE0（NULL）" style="rounded=0;whiteSpace=wrap;html=1;sketch=1;hachureGap=4;jiggle=2;fontFamily=Architects Daughter;fontSource=https%3A%2F%2Ffonts.googleapis.com%2Fcss%3Ffamily%3DArchitects%2BDaughter;fontSize=20;" vertex="1" parent="1">
          <mxGeometry x="460" y="1330" width="170" height="50" as="geometry" />
        </mxCell>
        <mxCell id="n-UZRIZnCVYdmCaeWVoW-84" value="1" style="rounded=0;whiteSpace=wrap;html=1;sketch=1;hachureGap=4;jiggle=2;fontFamily=Architects Daughter;fontSource=https%3A%2F%2Ffonts.googleapis.com%2Fcss%3Ffamily%3DArchitects%2BDaughter;fontSize=20;" vertex="1" parent="1">
          <mxGeometry x="400" y="1180" width="60" height="50" as="geometry" />
        </mxCell>
        <mxCell id="n-UZRIZnCVYdmCaeWVoW-85" value="1" style="rounded=0;whiteSpace=wrap;html=1;sketch=1;hachureGap=4;jiggle=2;fontFamily=Architects Daughter;fontSource=https%3A%2F%2Ffonts.googleapis.com%2Fcss%3Ffamily%3DArchitects%2BDaughter;fontSize=20;" vertex="1" parent="1">
          <mxGeometry x="400" y="1230" width="60" height="50" as="geometry" />
        </mxCell>
        <mxCell id="n-UZRIZnCVYdmCaeWVoW-86" value="0" style="rounded=0;whiteSpace=wrap;html=1;sketch=1;hachureGap=4;jiggle=2;fontFamily=Architects Daughter;fontSource=https%3A%2F%2Ffonts.googleapis.com%2Fcss%3Ffamily%3DArchitects%2BDaughter;fontSize=20;" vertex="1" parent="1">
          <mxGeometry x="400" y="1280" width="60" height="50" as="geometry" />
        </mxCell>
        <mxCell id="n-UZRIZnCVYdmCaeWVoW-87" value="0" style="rounded=0;whiteSpace=wrap;html=1;sketch=1;hachureGap=4;jiggle=2;fontFamily=Architects Daughter;fontSource=https%3A%2F%2Ffonts.googleapis.com%2Fcss%3Ffamily%3DArchitects%2BDaughter;fontSize=20;" vertex="1" parent="1">
          <mxGeometry x="400" y="1330" width="60" height="50" as="geometry" />
        </mxCell>
        <mxCell id="n-UZRIZnCVYdmCaeWVoW-93" value="ADDR3" style="rounded=0;whiteSpace=wrap;html=1;sketch=1;hachureGap=4;jiggle=2;fontFamily=Architects Daughter;fontSource=https%3A%2F%2Ffonts.googleapis.com%2Fcss%3Ffamily%3DArchitects%2BDaughter;fontSize=20;" vertex="1" parent="1">
          <mxGeometry x="800" y="1085" width="120" height="50" as="geometry" />
        </mxCell>
        <mxCell id="n-UZRIZnCVYdmCaeWVoW-94" value="ADDR2" style="rounded=0;whiteSpace=wrap;html=1;sketch=1;hachureGap=4;jiggle=2;fontFamily=Architects Daughter;fontSource=https%3A%2F%2Ffonts.googleapis.com%2Fcss%3Ffamily%3DArchitects%2BDaughter;fontSize=20;" vertex="1" parent="1">
          <mxGeometry x="800" y="1135" width="120" height="50" as="geometry" />
        </mxCell>
        <mxCell id="n-UZRIZnCVYdmCaeWVoW-95" value="ADDR1" style="rounded=0;whiteSpace=wrap;html=1;sketch=1;hachureGap=4;jiggle=2;fontFamily=Architects Daughter;fontSource=https%3A%2F%2Ffonts.googleapis.com%2Fcss%3Ffamily%3DArchitects%2BDaughter;fontSize=20;" vertex="1" parent="1">
          <mxGeometry x="800" y="1185" width="120" height="50" as="geometry" />
        </mxCell>
        <mxCell id="n-UZRIZnCVYdmCaeWVoW-96" value="ADDR0" style="rounded=0;whiteSpace=wrap;html=1;sketch=1;hachureGap=4;jiggle=2;fontFamily=Architects Daughter;fontSource=https%3A%2F%2Ffonts.googleapis.com%2Fcss%3Ffamily%3DArchitects%2BDaughter;fontSize=20;" vertex="1" parent="1">
          <mxGeometry x="800" y="1235" width="120" height="50" as="geometry" />
        </mxCell>
        <mxCell id="n-UZRIZnCVYdmCaeWVoW-98" value="" style="rounded=0;whiteSpace=wrap;html=1;sketch=1;dashed=1;" vertex="1" parent="1">
          <mxGeometry x="700" y="130" width="530" height="320" as="geometry" />
        </mxCell>
        <mxCell id="n-UZRIZnCVYdmCaeWVoW-99" value="" style="rounded=1;whiteSpace=wrap;html=1;sketch=1;" vertex="1" parent="1">
          <mxGeometry x="740" y="80" width="460" height="100" as="geometry" />
        </mxCell>
        <mxCell id="n-UZRIZnCVYdmCaeWVoW-101" value="虚拟内存" style="text;html=1;strokeColor=none;fillColor=none;align=center;verticalAlign=middle;whiteSpace=wrap;rounded=0;sketch=1;" vertex="1" parent="1">
          <mxGeometry x="720" y="380" width="60" height="30" as="geometry" />
        </mxCell>
        <mxCell id="n-UZRIZnCVYdmCaeWVoW-102" value="&lt;span style=&quot;color: rgb(68, 68, 68); font-family: 微软雅黑; font-size: 13px; text-align: left; background-color: rgb(255, 255, 255);&quot;&gt;用户空间（User-space）&lt;/span&gt;" style="text;html=1;strokeColor=none;fillColor=none;align=center;verticalAlign=middle;whiteSpace=wrap;rounded=0;sketch=1;" vertex="1" parent="1">
          <mxGeometry x="1010" y="210" width="180" height="40" as="geometry" />
        </mxCell>
        <mxCell id="n-UZRIZnCVYdmCaeWVoW-112" value="read" style="edgeStyle=none;rounded=0;sketch=1;hachureGap=4;jiggle=2;orthogonalLoop=1;jettySize=auto;html=1;exitX=0.177;exitY=-0.019;exitDx=0;exitDy=0;entryX=0.389;entryY=1.011;entryDx=0;entryDy=0;entryPerimeter=0;fontFamily=Architects Daughter;fontSource=https%3A%2F%2Ffonts.googleapis.com%2Fcss%3Ffamily%3DArchitects%2BDaughter;fontSize=20;exitPerimeter=0;" edge="1" parent="1" source="n-UZRIZnCVYdmCaeWVoW-3" target="n-UZRIZnCVYdmCaeWVoW-2">
          <mxGeometry relative="1" as="geometry" />
        </mxCell>
        <mxCell id="n-UZRIZnCVYdmCaeWVoW-3" value="" style="rounded=1;whiteSpace=wrap;html=1;sketch=1;" vertex="1" parent="1">
          <mxGeometry x="170" y="270" width="1020" height="130" as="geometry" />
        </mxCell>
        <mxCell id="n-UZRIZnCVYdmCaeWVoW-6" value="&lt;span style=&quot;color: rgb(68, 68, 68); font-family: 微软雅黑; font-size: 13px; text-align: left; background-color: rgb(255, 255, 255);&quot;&gt;内核空间（Kernel-space）&lt;/span&gt;" style="text;html=1;strokeColor=none;fillColor=none;align=center;verticalAlign=middle;whiteSpace=wrap;rounded=0;sketch=1;" vertex="1" parent="1">
          <mxGeometry x="990" y="350" width="180" height="40" as="geometry" />
        </mxCell>
        <mxCell id="n-UZRIZnCVYdmCaeWVoW-104" value="内核空间内存" style="text;html=1;strokeColor=none;fillColor=none;align=center;verticalAlign=middle;whiteSpace=wrap;rounded=0;labelBackgroundColor=none;sketch=1;hachureGap=4;jiggle=2;fontFamily=Architects Daughter;fontSource=https%3A%2F%2Ffonts.googleapis.com%2Fcss%3Ffamily%3DArchitects%2BDaughter;fontSize=20;" vertex="1" parent="1">
          <mxGeometry x="935" y="1180" width="210" height="40" as="geometry" />
        </mxCell>
        <mxCell id="n-UZRIZnCVYdmCaeWVoW-105" value="用户空间内存" style="text;html=1;strokeColor=none;fillColor=none;align=center;verticalAlign=middle;whiteSpace=wrap;rounded=0;labelBackgroundColor=none;sketch=1;hachureGap=4;jiggle=2;fontFamily=Architects Daughter;fontSource=https%3A%2F%2Ffonts.googleapis.com%2Fcss%3Ffamily%3DArchitects%2BDaughter;fontSize=20;" vertex="1" parent="1">
          <mxGeometry x="900" y="1350" width="210" height="40" as="geometry" />
        </mxCell>
        <mxCell id="n-UZRIZnCVYdmCaeWVoW-106" value="VPFN3" style="rounded=0;whiteSpace=wrap;html=1;sketch=1;hachureGap=4;jiggle=2;fontFamily=Architects Daughter;fontSource=https%3A%2F%2Ffonts.googleapis.com%2Fcss%3Ffamily%3DArchitects%2BDaughter;fontSize=20;" vertex="1" parent="1">
          <mxGeometry x="160" y="1000" width="120" height="50" as="geometry" />
        </mxCell>
        <mxCell id="n-UZRIZnCVYdmCaeWVoW-107" value="VPFN2" style="rounded=0;whiteSpace=wrap;html=1;sketch=1;hachureGap=4;jiggle=2;fontFamily=Architects Daughter;fontSource=https%3A%2F%2Ffonts.googleapis.com%2Fcss%3Ffamily%3DArchitects%2BDaughter;fontSize=20;" vertex="1" parent="1">
          <mxGeometry x="160" y="1050" width="120" height="50" as="geometry" />
        </mxCell>
        <mxCell id="n-UZRIZnCVYdmCaeWVoW-108" value="VPFN1" style="rounded=0;whiteSpace=wrap;html=1;sketch=1;hachureGap=4;jiggle=2;fontFamily=Architects Daughter;fontSource=https%3A%2F%2Ffonts.googleapis.com%2Fcss%3Ffamily%3DArchitects%2BDaughter;fontSize=20;" vertex="1" parent="1">
          <mxGeometry x="160" y="1100" width="120" height="50" as="geometry" />
        </mxCell>
        <mxCell id="n-UZRIZnCVYdmCaeWVoW-109" value="共享" style="text;html=1;strokeColor=none;fillColor=none;align=center;verticalAlign=middle;whiteSpace=wrap;rounded=0;labelBackgroundColor=none;sketch=1;hachureGap=4;jiggle=2;fontFamily=Architects Daughter;fontSource=https%3A%2F%2Ffonts.googleapis.com%2Fcss%3Ffamily%3DArchitects%2BDaughter;fontSize=20;" vertex="1" parent="1">
          <mxGeometry x="-10" y="1070" width="160" height="30" as="geometry" />
        </mxCell>
        <mxCell id="n-UZRIZnCVYdmCaeWVoW-110" value="私有" style="text;html=1;strokeColor=none;fillColor=none;align=center;verticalAlign=middle;whiteSpace=wrap;rounded=0;labelBackgroundColor=none;sketch=1;hachureGap=4;jiggle=2;fontFamily=Architects Daughter;fontSource=https%3A%2F%2Ffonts.googleapis.com%2Fcss%3Ffamily%3DArchitects%2BDaughter;fontSize=20;" vertex="1" parent="1">
          <mxGeometry x="20" y="1260" width="160" height="30" as="geometry" />
        </mxCell>
        <mxCell id="n-UZRIZnCVYdmCaeWVoW-116" value="write" style="edgeStyle=none;rounded=0;sketch=1;hachureGap=4;jiggle=2;orthogonalLoop=1;jettySize=auto;html=1;exitX=0.399;exitY=-0.016;exitDx=0;exitDy=0;entryX=0.85;entryY=1.007;entryDx=0;entryDy=0;entryPerimeter=0;fontFamily=Architects Daughter;fontSource=https%3A%2F%2Ffonts.googleapis.com%2Fcss%3Ffamily%3DArchitects%2BDaughter;fontSize=20;exitPerimeter=0;" edge="1" parent="1" source="n-UZRIZnCVYdmCaeWVoW-3" target="n-UZRIZnCVYdmCaeWVoW-2">
          <mxGeometry relative="1" as="geometry">
            <mxPoint x="524.9999999999998" y="190" as="sourcePoint" />
            <mxPoint x="523.7399999999998" y="279.0899999999999" as="targetPoint" />
          </mxGeometry>
        </mxCell>
        <mxCell id="n-UZRIZnCVYdmCaeWVoW-121" value="cpu&amp;nbsp;copy" style="edgeStyle=none;rounded=0;sketch=1;hachureGap=4;jiggle=2;orthogonalLoop=1;jettySize=auto;html=1;exitX=0.75;exitY=1;exitDx=0;exitDy=0;fontFamily=Architects Daughter;fontSource=https%3A%2F%2Ffonts.googleapis.com%2Fcss%3Ffamily%3DArchitects%2BDaughter;fontSize=20;" edge="1" parent="1" source="n-UZRIZnCVYdmCaeWVoW-117" target="n-UZRIZnCVYdmCaeWVoW-120">
          <mxGeometry relative="1" as="geometry" />
        </mxCell>
        <mxCell id="n-UZRIZnCVYdmCaeWVoW-117" value="用户缓冲区" style="rounded=0;whiteSpace=wrap;html=1;labelBackgroundColor=none;sketch=1;hachureGap=4;jiggle=2;fontFamily=Architects Daughter;fontSource=https%3A%2F%2Ffonts.googleapis.com%2Fcss%3Ffamily%3DArchitects%2BDaughter;fontSize=20;fillColor=none;" vertex="1" parent="1">
          <mxGeometry x="230" y="120" width="360" height="40" as="geometry" />
        </mxCell>
        <mxCell id="n-UZRIZnCVYdmCaeWVoW-119" value="cpu&amp;nbsp;copy" style="edgeStyle=none;rounded=0;sketch=1;hachureGap=4;jiggle=2;orthogonalLoop=1;jettySize=auto;html=1;exitX=0.25;exitY=0;exitDx=0;exitDy=0;entryX=0.25;entryY=1;entryDx=0;entryDy=0;fontFamily=Architects Daughter;fontSource=https%3A%2F%2Ffonts.googleapis.com%2Fcss%3Ffamily%3DArchitects%2BDaughter;fontSize=20;" edge="1" parent="1" source="n-UZRIZnCVYdmCaeWVoW-118" target="n-UZRIZnCVYdmCaeWVoW-117">
          <mxGeometry relative="1" as="geometry" />
        </mxCell>
        <mxCell id="n-UZRIZnCVYdmCaeWVoW-118" value="&lt;div style=&quot;text-align: left;&quot;&gt;&lt;span style=&quot;background-color: initial;&quot;&gt;内核&amp;nbsp;&lt;/span&gt;&lt;font size=&quot;3&quot; color=&quot;#121212&quot;&gt;&lt;span style=&quot;background-color: rgb(255, 255, 255);&quot;&gt;Buffer&lt;/span&gt;&lt;/font&gt;&lt;/div&gt;" style="rounded=0;whiteSpace=wrap;html=1;labelBackgroundColor=none;sketch=1;hachureGap=4;jiggle=2;fontFamily=Architects Daughter;fontSource=https%3A%2F%2Ffonts.googleapis.com%2Fcss%3Ffamily%3DArchitects%2BDaughter;fontSize=20;fillColor=none;" vertex="1" parent="1">
          <mxGeometry x="240" y="315" width="140" height="40" as="geometry" />
        </mxCell>
        <mxCell id="n-UZRIZnCVYdmCaeWVoW-124" value="DMA&amp;nbsp;copy" style="edgeStyle=none;rounded=0;sketch=1;hachureGap=4;jiggle=2;orthogonalLoop=1;jettySize=auto;html=1;fontFamily=Architects Daughter;fontSource=https%3A%2F%2Ffonts.googleapis.com%2Fcss%3Ffamily%3DArchitects%2BDaughter;fontSize=20;" edge="1" parent="1" source="n-UZRIZnCVYdmCaeWVoW-120" target="n-UZRIZnCVYdmCaeWVoW-10">
          <mxGeometry relative="1" as="geometry" />
        </mxCell>
        <mxCell id="n-UZRIZnCVYdmCaeWVoW-120" value="socket&amp;nbsp;Buffer" style="rounded=0;whiteSpace=wrap;html=1;labelBackgroundColor=none;sketch=1;hachureGap=4;jiggle=2;fontFamily=Architects Daughter;fontSource=https%3A%2F%2Ffonts.googleapis.com%2Fcss%3Ffamily%3DArchitects%2BDaughter;fontSize=20;fillColor=none;" vertex="1" parent="1">
          <mxGeometry x="445" y="315" width="140" height="40" as="geometry" />
        </mxCell>
        <mxCell id="n-UZRIZnCVYdmCaeWVoW-123" value="DMA&amp;nbsp;copy" style="edgeStyle=none;rounded=0;sketch=1;hachureGap=4;jiggle=2;orthogonalLoop=1;jettySize=auto;html=1;fontFamily=Architects Daughter;fontSource=https%3A%2F%2Ffonts.googleapis.com%2Fcss%3Ffamily%3DArchitects%2BDaughter;fontSize=20;" edge="1" parent="1" source="n-UZRIZnCVYdmCaeWVoW-9">
          <mxGeometry relative="1" as="geometry">
            <mxPoint x="310" y="360" as="targetPoint" />
          </mxGeometry>
        </mxCell>
      </root>
    </mxGraphModel>
  </diagram>
</mxfile>
